<?xml version="1.0" standalone="no"?>
<!DOCTYPE svg PUBLIC "-//W3C//DTD SVG 20010904//EN"
 "http://www.w3.org/TR/2001/REC-SVG-20010904/DTD/svg10.dtd">
<svg version="1.0" xmlns="http://www.w3.org/2000/svg"
 width="484.000000pt" height="555.000000pt" viewBox="0 0 484.000000 555.000000"
 preserveAspectRatio="xMidYMid meet">

<g transform="translate(0.000000,555.000000) scale(0.100000,-0.100000)"
fill="#000000" stroke="none">
<path d="M2213 4687 c-3 -4 -11 -6 -18 -3 -8 3 -26 1 -42 -4 -15 -5 -59 -17
-98 -26 -38 -10 -77 -21 -85 -25 -8 -4 -55 -26 -103 -48 -280 -130 -526 -403
-606 -671 -12 -41 -29 -95 -36 -120 -21 -70 -26 -105 -35 -253 -4 -82 -13
-143 -20 -152 -7 -8 -25 -15 -40 -15 -47 0 -70 -28 -77 -92 -6 -62 7 -94 53
-131 26 -20 50 -85 38 -97 -5 -5 -26 -5 -46 -1 -43 10 -78 -8 -78 -39 0 -10
-5 -22 -11 -26 -27 -16 12 -370 58 -533 16 -54 64 -121 88 -121 24 0 29 -22
27 -110 -1 -47 3 -103 9 -125 6 -22 12 -62 14 -90 7 -89 17 -139 36 -190 10
-27 19 -60 19 -71 0 -12 7 -35 15 -50 8 -16 15 -36 15 -44 0 -9 6 -24 13 -35
7 -11 22 -42 32 -70 19 -54 62 -136 98 -187 55 -80 100 -139 111 -146 6 -4 22
-20 35 -37 28 -37 171 -155 188 -155 7 0 34 -13 60 -30 26 -16 54 -30 64 -30
9 0 22 -6 28 -14 6 -8 24 -16 39 -19 79 -16 124 -27 140 -35 9 -5 53 -10 97
-11 44 -1 86 -8 94 -14 26 -22 158 -23 181 -2 9 8 45 16 90 18 41 2 82 7 90
10 8 3 35 8 59 12 25 3 67 17 94 30 27 14 53 25 59 25 24 0 185 83 227 117 25
21 52 42 60 48 48 35 160 166 208 244 43 69 113 199 113 209 0 6 16 43 35 83
19 41 35 86 35 101 0 15 4 29 9 32 5 3 11 20 14 38 4 18 11 58 17 88 21 110
39 246 40 305 2 79 9 96 51 109 40 13 93 92 102 153 3 21 16 81 27 133 16 69
22 135 23 240 2 142 1 147 -23 177 -30 38 -60 41 -101 12 -46 -33 -63 -23 -67
39 -3 49 -1 55 32 86 31 29 36 39 35 77 -2 67 -12 101 -34 113 -11 6 -22 12
-25 14 -2 2 -5 44 -7 95 -4 155 -31 308 -74 421 -11 27 -19 55 -19 63 0 16
-76 151 -132 235 -75 113 -253 277 -368 339 -19 11 -42 23 -50 28 -21 13 -108
51 -117 51 -3 0 -34 11 -67 24 -34 13 -83 28 -111 31 -27 4 -56 12 -64 18 -16
14 -410 17 -418 4z m227 -527 c0 -6 -33 -10 -80 -10 -47 0 -80 4 -80 10 0 6
33 10 80 10 47 0 80 -4 80 -10z m150 -41 c0 -17 43 -48 66 -49 11 0 28 -8 36
-17 23 -26 48 -91 48 -125 0 -16 6 -31 15 -34 9 -4 15 -19 15 -42 0 -29 -8
-43 -40 -73 -22 -21 -45 -40 -52 -43 -10 -5 -10 -7 0 -12 14 -7 16 -44 2 -44
-5 0 -10 -6 -10 -14 0 -8 -9 -18 -20 -21 -13 -4 -20 -15 -20 -31 0 -13 -12
-43 -26 -65 -24 -38 -28 -41 -61 -36 -34 6 -83 -9 -83 -25 0 -14 -77 -9 -90 7
-8 9 -29 15 -55 15 -25 0 -60 9 -82 21 -38 21 -83 77 -83 105 0 8 -9 14 -20
14 -13 0 -22 9 -26 25 -3 14 -11 25 -16 25 -6 0 -7 7 -4 16 4 11 -6 27 -29 48
-28 26 -35 40 -35 71 0 40 20 64 53 65 14 0 17 9 17 55 0 50 3 59 36 90 20 19
45 35 56 35 11 0 29 11 40 25 19 25 20 25 194 25 119 0 174 -3 174 -11z m365
-717 c-3 -3 -31 -9 -63 -13 -31 -4 -84 -13 -117 -19 -33 -6 -78 -13 -100 -16
-39 -4 -39 -4 -10 7 40 14 278 57 288 51 5 -2 6 -7 2 -10z m88 11 c-7 -2 -21
-2 -30 0 -10 3 -4 5 12 5 17 0 24 -2 18 -5z m-1165 -20 c-10 -2 -28 -2 -40 0
-13 2 -5 4 17 4 22 1 32 -1 23 -4z m164 -24 c9 -5 27 -9 40 -10 13 0 18 -3 11
-5 -12 -5 -173 23 -182 31 -8 9 112 -7 131 -16z m548 -29 c0 -5 -7 -10 -16
-10 -8 0 -12 5 -9 10 3 6 10 10 16 10 5 0 9 -4 9 -10z m-407 -7 c-7 -2 -19 -2
-25 0 -7 3 -2 5 12 5 14 0 19 -2 13 -5z m-627 -32 c-3 -5 -36 -12 -73 -16 -69
-6 -128 -22 -151 -39 -23 -16 -22 0 1 22 17 16 43 24 102 30 111 13 127 13
121 3z m1612 2 c-10 -2 -28 -2 -40 0 -13 2 -5 4 17 4 22 1 32 -1 23 -4z m218
-9 c13 -3 30 -16 38 -29 l15 -23 -42 20 c-23 12 -70 23 -105 26 -34 3 -65 9
-69 15 -6 10 113 3 163 -9z m-1535 -128 c107 -33 167 -78 220 -167 44 -73 46
-89 20 -139 -11 -19 -30 -57 -43 -85 -40 -81 -108 -149 -169 -168 -139 -45
-366 -23 -467 45 -65 45 -124 151 -108 194 7 18 8 18 17 1 9 -16 12 -16 32 -2
12 8 37 15 57 15 24 0 31 3 21 9 -7 5 -12 14 -10 20 3 8 11 5 25 -7 24 -23 64
-45 64 -36 0 3 -13 22 -30 41 -37 41 -37 51 -4 117 42 84 89 123 193 161 48
18 125 18 182 1z m1290 -13 c65 -29 128 -89 155 -148 31 -65 30 -77 -6 -116
-30 -33 -31 -62 -1 -35 34 31 64 35 99 14 28 -17 33 -18 38 -4 10 27 24 18 24
-15 0 -78 -55 -171 -122 -205 -75 -39 -265 -67 -358 -54 -146 20 -208 66 -269
194 -56 119 -56 118 -23 189 44 92 107 151 199 187 65 26 199 22 264 -7z
m-723 -210 c5 -10 6 -47 3 -83 l-6 -65 -40 -3 -40 -3 0 50 c0 27 3 53 8 57 4
4 7 17 7 29 0 12 3 25 7 28 13 14 52 7 61 -10z m-1064 -288 c22 -20 33 -35 25
-35 -8 0 -30 16 -49 35 -44 45 -27 45 24 0z m2058 -7 c-19 -16 -37 -27 -40
-23 -4 4 9 19 28 35 19 16 37 26 40 23 3 -2 -10 -18 -28 -35z m-979 -79 c20
-33 1 -49 -56 -49 -70 0 -94 22 -57 52 29 23 98 21 113 -3z m307 -444 c13 -13
26 -22 31 -20 4 3 10 1 14 -5 3 -5 -1 -10 -9 -10 -9 0 -16 -4 -16 -8 0 -5 -46
-19 -102 -32 -72 -16 -97 -25 -83 -30 11 -4 41 -5 67 -3 26 3 55 2 65 -2 24
-9 -56 -38 -152 -55 -80 -13 -315 -9 -385 8 -25 6 -60 14 -78 19 -49 12 -39
28 16 25 26 -2 58 1 72 6 21 8 14 11 -55 27 -79 17 -155 43 -155 52 0 2 7 11
15 20 8 8 13 19 10 24 -4 5 140 9 358 9 l364 0 23 -25z m-896 -66 c-6 -56 -8
-60 -15 -35 -10 37 0 121 13 108 5 -5 6 -37 2 -73z m1090 4 c-2 -37 -6 -69 -8
-71 -8 -7 -18 126 -11 137 15 26 24 -4 19 -66z m-1067 -15 c-3 -8 -6 -5 -6 6
-1 11 2 17 5 13 3 -3 4 -12 1 -19z m1019 -24 c-19 -18 -21 -11 -4 19 7 14 13
17 15 10 3 -7 -3 -20 -11 -29z"/>
<path d="M2520 3545 c0 -9 6 -12 15 -9 8 4 15 10 15 15 0 5 -7 9 -15 9 -8 0
-15 -7 -15 -15z"/>
<path d="M1690 3098 c-88 -54 -124 -157 -84 -242 18 -37 24 -38 190 -52 69 -6
72 -6 106 25 41 35 55 39 60 14 7 -32 38 42 38 89 -1 112 -92 198 -209 198
-35 0 -60 -8 -101 -32z m54 -57 c37 -41 1 -95 -48 -73 -33 15 -35 55 -4 76 28
20 31 20 52 -3z"/>
<path d="M2894 3126 c-63 -20 -109 -61 -133 -116 -25 -58 -27 -107 -5 -153 15
-32 19 -34 104 -46 102 -16 150 -9 195 25 37 28 55 31 55 8 0 -33 28 6 38 52
18 85 -17 165 -91 208 -53 32 -111 39 -163 22z m6 -91 c16 -30 0 -75 -25 -75
-53 0 -74 56 -33 84 31 22 42 20 58 -9z"/>
<path d="M3348 2863 c7 -3 16 -2 19 1 4 3 -2 6 -13 5 -11 0 -14 -3 -6 -6z"/>
</g>
</svg>
